<?xml version="1.0" encoding="UTF-8"?>
<svg id="Capa_1" data-name="Capa 1" xmlns="http://www.w3.org/2000/svg" viewBox="0 0 100 100">
  <defs>
    <style>
      .cls-1 {
        opacity: .2;
      }
    </style>
  </defs>
  <g class="cls-1">
    <path d="m49.99,74.59c-5.62,0-11.23.01-16.85,0-4.75-.01-7.69-2.94-7.69-7.68,0-11.23,0-22.46,0-33.69,0-4.69,2.79-7.72,7.49-7.75,11.38-.09,22.76-.09,34.14,0,4.67.04,7.47,3.1,7.47,7.77,0,11.23,0,22.46,0,33.69,0,4.71-2.97,7.64-7.71,7.65-5.62.01-11.23,0-16.85,0Zm19.41-24.55c0-5.67,0-11.33,0-17,0-1.95-.45-2.41-2.44-2.41-11.29,0-22.57,0-33.86,0-2.09,0-2.56.5-2.56,2.63,0,11.19,0,22.37,0,33.56,0,2.17.48,2.64,2.7,2.64,11.19,0,22.38,0,33.57,0,2.14,0,2.59-.45,2.59-2.56,0-5.62,0-11.24,0-16.85Z"/>
    <path d="m50.64,36.09c1.12,0,2.25-.04,3.37,0,3.37.13,6.11,2.23,6.99,5.29.94,3.27-.14,6.41-2.93,8.38-1.16.81-2.37,1.54-3.58,2.28-1.04.64-1.93,1.26-2.36,2.6-.22.67-1.5,1.41-2.26,1.37-.76-.04-1.86-.87-2.14-1.6-.72-1.92-.63-4.14,1.8-5.35,1.74-.87,3.37-1.97,5.04-2.98,1.2-.72,1.9-1.74,1.51-3.17-.39-1.43-1.55-1.73-2.88-1.71-1.71.02-3.42,0-5.13,0-2.05,0-2.38.43-2.65,2.43-.11.83-.55,1.85-1.18,2.33-1.66,1.24-3.66-.01-3.85-2.28-.32-3.88,2.81-7.43,6.73-7.58,1.17-.05,2.34,0,3.52,0Z"/>
    <path d="m46.63,62.38c0-2.05,1.35-3.43,3.35-3.42,1.95,0,3.44,1.48,3.45,3.4,0,1.9-1.51,3.43-3.42,3.44-1.96.02-3.38-1.42-3.38-3.42Z"/>
    <path d="m32.52,64.88c.07-1.39,1.23-2.44,2.62-2.38,1.43.06,2.39,1.13,2.35,2.61-.04,1.43-1.16,2.48-2.57,2.41-1.34-.07-2.47-1.31-2.41-2.64Z"/>
    <path d="m67.41,64.95c.03,1.44-1,2.53-2.42,2.57-1.33.04-2.53-1.13-2.54-2.48-.02-1.41,1.05-2.52,2.45-2.54,1.42-.02,2.49,1.02,2.51,2.45Z"/>
    <path d="m37.49,35.14c-.01,1.41-1.12,2.52-2.49,2.5-1.33-.03-2.49-1.22-2.49-2.56,0-1.39,1.11-2.44,2.55-2.43,1.49.02,2.45,1,2.43,2.49Z"/>
    <path d="m67.41,35.12c-.01,1.43-1.09,2.52-2.48,2.52-1.33,0-2.5-1.2-2.49-2.54.01-1.46,1.03-2.46,2.5-2.45,1.48,0,2.48,1.01,2.46,2.47Z"/>
  </g>
</svg>