<?xml version="1.0" encoding="utf-8"?>
<!-- Generator: Adobe Illustrator 27.2.0, SVG Export Plug-In . SVG Version: 6.00 Build 0)  -->
<svg version="1.1" id="Capa_1" xmlns="http://www.w3.org/2000/svg" xmlns:xlink="http://www.w3.org/1999/xlink" x="0px" y="0px"
	 viewBox="0 0 64 64" style="enable-background:new 0 0 64 64;" xml:space="preserve">
<style type="text/css">
	.st0{fill:url(#SVGID_1_);}
	.st1{fill:#FFFFFF;stroke:#FFFFFF;stroke-miterlimit:10;}
</style>
<radialGradient id="SVGID_1_" cx="61.76" cy="2.67" r="70.62" gradientTransform="matrix(1 0 0 -1 0 64)" gradientUnits="userSpaceOnUse">
	<stop  offset="0" style="stop-color:#561466"/>
	<stop  offset="4.000000e-02" style="stop-color:#481466"/>
	<stop  offset="0.11" style="stop-color:#321466"/>
	<stop  offset="0.15" style="stop-color:#2A1466"/>
	<stop  offset="0.16" style="stop-color:#291463"/>
	<stop  offset="0.28" style="stop-color:#1F1444"/>
	<stop  offset="0.41" style="stop-color:#18142D"/>
	<stop  offset="0.55" style="stop-color:#13141C"/>
	<stop  offset="0.69" style="stop-color:#0F1412"/>
	<stop  offset="0.88" style="stop-color:#0F150F"/>
	<stop  offset="1" style="stop-color:#1A1C15"/>
</radialGradient>
<path class="st0" d="M19.4,0h25.3C55.3,0,64,8.7,64,19.4v25.3C64,55.3,55.3,64,44.7,64H19.4C8.7,64,0,55.3,0,44.7V19.4
	C0,8.7,8.7,0,19.4,0z"/>
<g>
	<path class="st1" d="M18.2,41.1L5,34.5v-1l13.2-7.3v2.4l-9.8,5.3V34l9.8,4.7V41.1L18.2,41.1z"/>
	<path class="st1" d="M24.3,42.9V21.1h6.2c3.8,0,6.7,0.9,8.7,2.6s2.9,4.4,2.9,8c0,3.4-1.1,6.1-3.2,8.1c-2.1,2-5,3.1-8.6,3.1H24.3z
		 M27.1,23.6v16.9h3.2c2.8,0,5-0.8,6.5-2.3s2.3-3.6,2.3-6.4s-0.7-4.8-2.2-6.2s-3.6-2.1-6.5-2.1H27.1L27.1,23.6z"/>
	<path class="st1" d="M59,34.5L45.8,41v-2.4l9.8-4.7v-0.1l-9.8-5.3v-2.4L59,33.4C59,33.4,59,34.5,59,34.5z"/>
</g>
</svg>
