<?xml version="1.0" encoding="UTF-8"?>
<svg id="Capa_1" data-name="Capa 1" xmlns="http://www.w3.org/2000/svg" xmlns:xlink="http://www.w3.org/1999/xlink" viewBox="0 0 64 64">
  <defs>
    <style>
      .cls-1 {
        fill: url(#Degradado_sin_nombre_62);
      }

      .cls-2 {
        fill: #fff;
        stroke: #fff;
        stroke-miterlimit: 10;
      }
    </style>
    <radialGradient id="Degradado_sin_nombre_62" data-name="Degradado sin nombre 62" cx="61.76" cy="61.33" fx="61.76" fy="61.33" r="70.62" gradientUnits="userSpaceOnUse">
      <stop offset="0" stop-color="#561466"/>
      <stop offset=".04" stop-color="#481466"/>
      <stop offset=".11" stop-color="#321466"/>
      <stop offset=".15" stop-color="#2a1466"/>
      <stop offset=".16" stop-color="#291463"/>
      <stop offset=".28" stop-color="#1f1444"/>
      <stop offset=".41" stop-color="#18142d"/>
      <stop offset=".55" stop-color="#13141c"/>
      <stop offset=".69" stop-color="#0f1412"/>
      <stop offset=".88" stop-color="#0f150f"/>
      <stop offset="1" stop-color="#1a1c15"/>
    </radialGradient>
  </defs>
  <rect class="cls-1" x="0" y="0" width="64" height="64" rx="19.35" ry="19.35"/>
  <g>
    <path class="cls-2" d="m18.18,41.07l-13.18-6.57v-1.03l13.18-7.29v2.42l-9.8,5.31v.06l9.8,4.72v2.39Z"/>
    <path class="cls-2" d="m24.29,42.91v-21.82h6.18c3.85,0,6.74.88,8.66,2.65s2.88,4.43,2.88,7.98c0,3.37-1.07,6.07-3.2,8.12-2.14,2.04-4.99,3.07-8.56,3.07h-5.96Zm2.77-19.35v16.89h3.18c2.79,0,4.96-.75,6.52-2.26s2.34-3.64,2.34-6.4-.73-4.78-2.18-6.16-3.63-2.07-6.53-2.07h-3.32Z"/>
    <path class="cls-2" d="m59,34.48l-13.18,6.57v-2.4l9.81-4.67v-.09l-9.81-5.31v-2.42l13.18,7.29v1.03Z"/>
  </g>
</svg>