<?xml version="1.0" encoding="UTF-8"?>
<svg id="Capa_1" data-name="Capa 1" xmlns="http://www.w3.org/2000/svg" viewBox="0 0 64 20.74">
  <defs>
    <style>
      .cls-1 {
        fill: #7f7f7f;
      }
    </style>
  </defs>
  <path class="cls-1" d="m10.94,0c.94.34,1.66.9,1.92,1.93.32,1.29-.4,2.62-1.65,3.04-1.28.43-2.68-.19-3.2-1.42-.53-1.24,0-2.68,1.19-3.29.19-.09.38-.18.57-.27.39,0,.79,0,1.18,0Z"/>
  <path class="cls-1" d="m64,17.08h-2.88c.03.74.4,1.13,1.13,1.09.55-.03,1.1-.22,1.7-.35,0,.21.03.5-.01.77-.02.11-.16.25-.27.3-.85.31-1.72.35-2.58.06-.91-.31-1.41-1.19-1.31-2.24.11-1.17.75-1.93,1.76-2.05.37-.04.76-.04,1.13.02.75.11,1.1.67,1.35,1.32v1.09Zm-1.3-.75c-.03-.67-.31-.94-.86-.89-.48.04-.77.4-.69.89h1.55Z"/>
  <path class="cls-1" d="m6.5,4.01c.45.56.9,1.1,1.31,1.66.08.11.05.34,0,.49-.67,2.37-1.36,4.73-2.03,7.1-.09.33-.18.69-.16,1.02.06.98.78,1.65,1.81,1.67,1.97.03,3.94.04,5.9,0,1.3-.03,2.05-1.09,1.72-2.35-.67-2.51-1.36-5.01-2.05-7.52-.08-.3-.04-.48.17-.72.39-.44.7-.94,1.05-1.42.03.04.1.14.15.25,1.86,3.66,3.73,7.33,5.59,10.99.91,1.8-.34,3.92-2.35,3.92-4.81.02-9.63.02-14.44,0-2.09,0-3.31-2.09-2.36-3.96,1.85-3.64,3.71-7.27,5.56-10.9.05-.09.1-.19.13-.24Z"/>
  <path class="cls-1" d="m8.99,6.32c.91.3,1.8.31,2.76,0,.12.51.24.98.35,1.46.38,1.68.75,3.36,1.13,5.04.27,1.21-.21,1.86-1.43,1.89-.97.02-1.94.02-2.91,0-1.17-.03-1.67-.69-1.41-1.83.46-2.05.93-4.1,1.4-6.14.03-.13.07-.26.12-.42Z"/>
  <path class="cls-1" d="m50.2,19.42c.78.16,1.51.53,2.18-.02.19-.15.22-.49.36-.85-.41.15-.67.29-.95.35-.84.2-1.59-.22-1.87-1.03-.24-.71-.26-1.43.02-2.13.33-.83,1.1-1.27,1.96-1.08.37.08.7.18,1.08.08.28-.07.59-.01.95-.01,0,.36,0,.68,0,.99,0,1.03.02,2.06-.03,3.08-.05,1.14-.67,1.75-1.81,1.8-.49.02-.99-.05-1.49-.06-.36,0-.47-.18-.43-.52.02-.18,0-.36,0-.61Zm2.45-2.69c0-.26.02-.51,0-.77-.01-.11-.09-.27-.18-.31-.41-.21-1,0-1.21.41-.24.47-.23.97-.04,1.44.17.43.57.45.96.39.38-.06.54-.28.48-.67-.02-.16,0-.33,0-.5Z"/>
  <path class="cls-1" d="m19.39,2.78c0,1.06,0,2.1,0,3.14,0,.29.01.58.07.85.1.51.42.75.93.74.53,0,.89-.27.92-.8.05-1.1.04-2.21.06-3.31,0-.78-.02-.65.66-.65.22,0,.45,0,.73,0,0,.79,0,1.55,0,2.3,0,.6.03,1.22-.04,1.81-.11.9-.62,1.49-1.54,1.6-.65.08-1.35.01-2-.13-.64-.14-1.07-.68-1.1-1.31-.07-1.4-.02-2.8-.02-4.24h1.33Z"/>
  <path class="cls-1" d="m52.89,8.15c-.38.13-.74.32-1.13.38-.6.1-1.08-.18-1.35-.71-.47-.93-.5-1.9-.02-2.83.43-.85,1.31-1.14,2.2-.8.1.04.19.06.34.1v-1.75h1.3v5.82c-.68.21-1.23.11-1.34-.22Zm.05-1.92c0-.27.02-.54,0-.81-.01-.11-.08-.27-.17-.32-.36-.2-.95-.03-1.15.34-.3.56-.31,1.16-.05,1.74.18.39.55.42.94.34.36-.08.49-.3.45-.66-.03-.21,0-.42,0-.63Z"/>
  <path class="cls-1" d="m62.65,4.3v-1.8c.38,0,.73-.01,1.09.01.07,0,.2.15.2.24.01,1.87,0,3.75,0,5.66h-1.24c-.03-.08-.07-.2-.11-.32-.06.02-.1.02-.14.05-1.25.85-2.34.39-2.63-1.1-.13-.67-.09-1.33.2-1.95.43-.89,1.32-1.24,2.24-.9.11.04.22.07.38.12Zm0,1.92c0-.27.02-.54,0-.81-.01-.11-.09-.27-.18-.31-.42-.21-1-.01-1.2.42-.25.53-.25,1.09-.03,1.62.17.4.53.46.92.38.35-.07.56-.26.5-.67-.03-.21,0-.42,0-.63Z"/>
  <path class="cls-1" d="m27.17,14.88v-1.77h1.27v5.83c-.84.18-1.18.1-1.35-.31-.11.07-.22.14-.33.21-.86.55-1.83.29-2.23-.64-.33-.78-.36-1.59-.05-2.39.4-1.05,1.34-1.44,2.39-1.04.07.03.14.05.3.1Zm0,1.91s0,0,0,0c0-.27.02-.54,0-.81-.01-.11-.08-.27-.17-.32-.39-.21-.97-.02-1.17.38-.28.54-.26,1.11-.05,1.66.16.41.53.44.91.38.38-.06.54-.28.5-.66-.02-.21,0-.42,0-.63Z"/>
  <path class="cls-1" d="m40.39,19.01v-5.89h1.25v2.05c.22-.13.36-.22.51-.3.95-.55,1.91-.18,2.24.86.24.77.25,1.55-.08,2.3-.41.92-1.31,1.28-2.26.96-.18-.06-.4.02-.6.02-.33,0-.66,0-1.05,0Zm1.26-2.06c0,.29-.02.58,0,.86.01.1.11.25.2.29.46.2,1.1-.02,1.2-.48.1-.48.1-1.01.02-1.5-.06-.39-.49-.55-.9-.47-.41.08-.6.29-.54.72.03.19,0,.39,0,.59Z"/>
  <path class="cls-1" d="m58.98,8.49c-.47-.19-1.03.24-1.3-.3-.48.12-.96.31-1.45.34-.62.04-1.09-.42-1.2-1.02-.12-.65.13-1.25.69-1.48.37-.15.78-.21,1.18-.29.26-.05.53-.07.81-.1-.01-.47-.3-.65-.65-.64-.55.01-1.09.1-1.66.16v-.9c.92-.25,1.84-.33,2.76-.03.45.14.79.47.81.95.04,1.07.01,2.14.01,3.31Zm-1.33-2.09c-.34.08-.71.09-1.01.25-.16.09-.26.42-.26.63,0,.12.27.33.43.34.67.06,1.1-.12.84-1.23Z"/>
  <path class="cls-1" d="m47.78,16.06c-.17-.15-.32-.41-.51-.43-.44-.05-.89,0-1.34.04-.17.01-.34.1-.54.17v-1c.93-.25,1.86-.34,2.79-.02.44.15.76.47.78.92.05,1.07.01,2.14.01,3.2-.82.19-1.18.11-1.32-.25-.34.14-.67.33-1.03.42-.72.17-1.36-.23-1.57-.9-.23-.75.08-1.43.82-1.68.4-.13.82-.18,1.24-.25.19-.03.38-.05.57-.07.03-.05.05-.09.08-.14Zm-.13.92c-.31.06-.66.06-.94.2-.18.09-.34.39-.34.59,0,.15.27.41.45.43.68.07,1.08-.16.82-1.22Z"/>
  <path class="cls-1" d="m39.74,6.54h-2.85c-.04.66.36,1.1,1.11,1.07.55-.02,1.1-.23,1.7-.36,0,.24.02.53-.01.82-.01.1-.16.21-.27.25-.84.29-1.69.33-2.54.07-.94-.29-1.46-1.18-1.35-2.25.12-1.2.75-1.93,1.8-2.05.3-.03.6-.04.9,0,.89.11,1.44.69,1.52,1.59.02.27,0,.54,0,.87Zm-2.89-.81h1.62c-.05-.62-.27-.85-.75-.86-.52,0-.79.25-.87.86Z"/>
  <path class="cls-1" d="m33.41,17.69c0,.32.03.58-.01.82-.03.14-.16.32-.29.37-.83.31-1.69.34-2.54.07-.95-.3-1.46-1.23-1.33-2.32.14-1.18.82-1.91,1.87-2,.23-.02.45-.02.68,0,1.16.07,1.95,1.13,1.68,2.26-.02.1-.24.2-.36.2-.67.02-1.33.01-2,.01-.16,0-.33,0-.49,0-.05.5.14.82.58.97.59.21,1.16.13,1.71-.15.14-.07.29-.14.51-.25Zm-1.24-1.37c-.04-.65-.27-.9-.78-.89-.52,0-.8.32-.81.89h1.59Z"/>
  <path class="cls-1" d="m25.12,8.43h-1.25v-4.22h1.2c.03.11.05.22.09.36.07-.03.15-.04.2-.08.37-.29.78-.45,1.26-.42.67.05,1.14.45,1.18,1.2.06,1.04.01,2.08.01,3.15h-1.3c0-.3,0-.6,0-.89,0-.6,0-1.21-.03-1.81-.02-.41-.27-.58-.67-.56-.48.02-.69.21-.69.63,0,.87,0,1.75,0,2.65Z"/>
  <path class="cls-1" d="m55.02,14.75h1.28c0,.31,0,.61,0,.9.01.62.02,1.24.05,1.86.02.4.28.55.65.54.48-.01.7-.21.7-.63,0-.88,0-1.75,0-2.66h1.27c0,1.39,0,2.78,0,4.16-.68.23-1.18.12-1.33-.26-.34.15-.66.35-1.02.43-.84.2-1.55-.3-1.59-1.16-.05-1.04-.01-2.09-.01-3.18Z"/>
  <path class="cls-1" d="m36.42,18.1c.26-.02.49-.04.76-.06v-3.72c-.24-.02-.48-.04-.76-.07v-.86h2.99v.86c-.25.02-.49.05-.76.08v3.72c.26.02.49.04.76.06v.88h-2.99v-.87Z"/>
  <path class="cls-1" d="m43.65,7.17c.42.18.75.35,1.11.46.24.07.52.07.76.02.16-.03.29-.21.43-.32-.12-.13-.23-.31-.38-.37-.38-.14-.8-.18-1.17-.34-.87-.38-1.02-1.49-.28-2.07.25-.2.58-.37.89-.4.52-.05,1.05.01,1.57.04.42.02.57.26.52.67-.02.16,0,.33,0,.56-.21-.1-.35-.22-.52-.25-.42-.07-.85-.13-1.27-.15-.1,0-.29.19-.28.28.01.13.15.3.27.35.32.12.67.18,1,.27.51.15.91.41.98.99.07.61-.17,1.07-.71,1.35-.89.46-1.81.37-2.73.05-.09-.03-.18-.19-.19-.3-.03-.27,0-.54,0-.84Z"/>
  <path class="cls-1" d="m30.77,4.23c.09-.03.1-.04.11-.04q1.22-.07,1.58,1.1c.16.53.33,1.05.6,1.59.13-.4.26-.81.39-1.21.05-.16.09-.32.14-.48q.35-1.13,1.61-.97c-.04.15-.07.29-.12.43-.4,1.12-.81,2.24-1.2,3.37-.11.31-.25.45-.6.44-1.01-.03-1.01,0-1.35-.98-.38-1.08-.77-2.16-1.16-3.25Z"/>
  <path class="cls-1" d="m41.82,8.42h-1.29v-4.21h1.27c.01.16.03.31.05.52.47-.29.88-.68,1.49-.53v1.12c-.38.03-.74.06-1.09.1-.32.03-.45.19-.44.54.03.8,0,1.6,0,2.46Z"/>
  <path class="cls-1" d="m30.15,8.43h-1.25v-4.22h1.25v4.22Z"/>
  <path class="cls-1" d="m48.04,4.19h1.21v4.22h-1.21v-4.22Z"/>
  <path class="cls-1" d="m47.96,3.48v-.98c.4,0,.8-.01,1.2.01.06,0,.16.16.17.25.03.22,0,.45,0,.71h-1.38Z"/>
  <path class="cls-1" d="m61.27,14.09c.26-.5.46-.91.68-1.29.05-.09.21-.17.32-.18.28-.02.57,0,.99,0-.41.53-.72,1.01-1.12,1.39-.15.14-.51.06-.88.08Z"/>
  <path class="cls-1" d="m30.19,2.53v.96h-1.31v-.96h1.31Z"/>
</svg>